HIERARCHY
ROOT Hips
{
	OFFSET 0.000000 0.000000 0.000000
	CHANNELS 6 Xposition Yposition Zposition Xrotation Yrotation Zrotation
	JOINT LeftUpLeg_virtual
	{
		OFFSET 0.000000 0.000000 0.000000
		CHANNELS 3 Xrotation Yrotation Zrotation
		JOINT LeftUpLeg
		{
			OFFSET 13.026900 -6.336304 -1.092800
			CHANNELS 3 Xrotation Yrotation Zrotation
			JOINT LeftLeg
			{
				OFFSET 0.524474 -46.096886 9.782700
				CHANNELS 3 Xrotation Yrotation Zrotation
				JOINT LeftFoot
				{
					OFFSET -0.524474 -53.427422 -12.948200
					CHANNELS 3 Xrotation Yrotation Zrotation
					JOINT LeftToeBase
					{
						OFFSET 0.192200 -14.009700 16.364100
						CHANNELS 3 Xrotation Yrotation Zrotation
						JOINT LeftToe_End
						{
							OFFSET -1.784700 -0.561700 9.474800
							CHANNELS 3 Xrotation Yrotation Zrotation
							End Site
							{
								OFFSET 0 0 0
							}
						}
					}
				}
			}
		}
	}
	JOINT RightUpLeg_virtual
	{
		OFFSET 0.000000 0.000000 0.000000
		CHANNELS 3 Xrotation Yrotation Zrotation
		JOINT RightUpLeg
		{
			OFFSET -12.883000 -6.336304 -1.092800
			CHANNELS 3 Xrotation Yrotation Zrotation
			JOINT RightLeg
			{
				OFFSET -0.524587 -46.096825 9.782800
				CHANNELS 3 Xrotation Yrotation Zrotation
				JOINT RightFoot
				{
					OFFSET 0.524587 -53.427383 -12.948300
					CHANNELS 3 Xrotation Yrotation Zrotation
					JOINT RightToeBase
					{
						OFFSET -0.192200 -14.009700 16.364100
						CHANNELS 3 Xrotation Yrotation Zrotation
						JOINT RightToe_End
						{
							OFFSET 1.784700 -0.561700 9.474800
							CHANNELS 3 Xrotation Yrotation Zrotation
							End Site
							{
								OFFSET 0 0 0
							}
						}
					}
				}
			}
		}
	}
	JOINT Spine_virtual
	{
		OFFSET 0.000000 0.000000 0.000000
		CHANNELS 3 Xrotation Yrotation Zrotation
		JOINT Spine
		{
			OFFSET 0.072000 7.257294 -0.789700
			CHANNELS 3 Xrotation Yrotation Zrotation
			JOINT Spine1
			{
				OFFSET 0.000000 12.508769 -0.658067
				CHANNELS 3 Xrotation Yrotation Zrotation
				JOINT Spine1_split
				{
					OFFSET 0.000000 12.508769 -0.658067
					CHANNELS 3 Xrotation Yrotation Zrotation
					JOINT Spine2
					{
						OFFSET 0.000000 12.508769 -0.658067
						CHANNELS 3 Xrotation Yrotation Zrotation
						JOINT Neck_virtual
						{
							OFFSET 0.000000 0.000000 0.000000
							CHANNELS 3 Xrotation Yrotation Zrotation
							JOINT Neck
							{
								OFFSET 0.000000 14.033295 7.520400
								CHANNELS 3 Xrotation Yrotation Zrotation
								JOINT Head
								{
									OFFSET 0.000000 8.198502 5.703100
									CHANNELS 3 Xrotation Yrotation Zrotation
									JOINT HeadTop_End
									{
										OFFSET 0.000000 17.760803 13.332701
										CHANNELS 3 Xrotation Yrotation Zrotation
										End Site
										{
											OFFSET 0 0 0
										}
									}
								}
							}
						}
						JOINT LeftShoulder_virtual
						{
							OFFSET 0.000000 0.000000 0.000000
							CHANNELS 3 Xrotation Yrotation Zrotation
							JOINT LeftShoulder
							{
								OFFSET 6.292450 5.785301 -0.669000
								CHANNELS 3 Xrotation Yrotation Zrotation
								JOINT LeftShoulder_split
								{
									OFFSET 6.292450 5.785301 -0.669000
									CHANNELS 3 Xrotation Yrotation Zrotation
									JOINT LeftArm
									{
										OFFSET 13.907140 -6.093903 1.965100
										CHANNELS 3 Xrotation Yrotation Zrotation
										JOINT LeftForeArm
										{
											OFFSET 34.140198 0.000000 0.000000
											CHANNELS 3 Xrotation Yrotation Zrotation
											JOINT LeftHand
											{
												OFFSET 40.960209 0.000000 0.000000
												CHANNELS 3 Xrotation Yrotation Zrotation
												End Site
												{
													OFFSET 0 0 0
												}
											}
										}
									}
								}
							}
						}
						JOINT RightShoulder_virtual
						{
							OFFSET 0.000000 0.000000 0.000000
							CHANNELS 3 Xrotation Yrotation Zrotation
							JOINT RightShoulder
							{
								OFFSET -6.292450 5.785301 -0.669000
								CHANNELS 3 Xrotation Yrotation Zrotation
								JOINT RightShoulder_split
								{
									OFFSET -6.292450 5.785301 -0.669000
									CHANNELS 3 Xrotation Yrotation Zrotation
									JOINT RightArm
									{
										OFFSET -13.907140 -6.093903 1.965100
										CHANNELS 3 Xrotation Yrotation Zrotation
										JOINT RightForeArm
										{
											OFFSET -34.140198 0.000000 0.000000
											CHANNELS 3 Xrotation Yrotation Zrotation
											JOINT RightHand
											{
												OFFSET -40.960209 0.000000 0.000000
												CHANNELS 3 Xrotation Yrotation Zrotation
												End Site
												{
													OFFSET 0 0 0
												}
											}
										}
									}
								}
							}
						}
					}
				}
			}
		}
	}
}
MOTION
Frames: 4
Frame Time: 0.03333333
-5.251056 114.067001 -4.183479 0.000000 0.000000 0.000000 -9.509255 -2.851760 8.341227 2.369022 13.615116 -4.737038 6.834089 3.543510 0.653166 -0.098477 -2.424964 -2.163603 -3.142235 0.066727 -1.027131 0.000000 0.000000 0.000000 -9.508075 -2.880399 8.250934 -9.293627 -6.089812 -22.418510 31.813563 5.072670 1.973482 -10.390622 -14.450811 5.474085 -5.837712 0.343301 -0.136175 0.000000 0.000000 0.000000 -9.383532 -6.223093 7.642390 2.804508 -1.471599 -5.739188 4.248995 2.115777 -3.147379 2.138513 -1.564616 1.792275 0.000000 0.000000 0.000000 3.636342 1.758073 -3.257871 0.173639 -3.470319 -6.281237 -1.111159 -11.279298 5.406704 0.000000 0.000000 0.000000 4.520343 1.184459 -3.473781 3.437228 -7.996981 -19.111482 -6.556124 4.893530 -5.736531 18.342830 2.129661 -46.774498 1.084250 -46.870906 -5.548579 0.000000 0.000000 0.000000 2.709458 1.906373 -2.024953 6.330908 5.989810 6.177393 -2.966779 4.235830 0.335749 1.282470 -9.302226 68.159428 18.087975 30.390930 0.860583 0.000000 0.000000 0.000000 
-5.600961 114.601799 -3.161980 0.000000 0.000000 0.000000 -9.415681 -2.319908 8.187192 2.279426 12.221551 -4.370971 7.439999 3.531824 0.801173 0.504385 -1.938372 -1.995736 -4.040433 0.044612 -0.890396 0.000000 0.000000 0.000000 -9.582984 -2.232623 8.136216 -8.516439 -6.823464 -22.262805 30.841665 4.848712 1.778735 -10.099412 -13.756492 6.882681 -7.271886 0.337510 -0.174167 0.000000 0.000000 0.000000 -9.609665 -5.464417 7.139120 2.771683 -1.405920 -5.808763 5.202556 2.157890 -2.871673 2.191610 -0.720133 1.874512 0.000000 0.000000 0.000000 4.348790 1.876278 -3.064123 -0.935696 -3.436866 -5.651115 -2.727140 -9.819846 5.003863 0.000000 0.000000 0.000000 5.406671 1.245497 -3.202048 3.504140 -9.220860 -17.426215 -4.247409 1.858481 -3.627441 19.413742 -0.729561 -47.820357 1.291784 -47.615933 -5.210892 0.000000 0.000000 0.000000 3.414128 2.007638 -1.884142 5.908409 6.374995 6.347523 -2.889824 5.362516 0.240648 2.254320 -7.032806 67.233718 18.615851 33.703285 -0.085868 0.000000 0.000000 0.000000 
-6.018691 115.507935 -2.510849 0.000000 0.000000 0.000000 -9.598503 -1.684150 7.783920 2.020273 10.937757 -4.024267 8.356799 3.317019 0.830783 0.934680 -0.978650 -1.401577 -5.178074 0.050160 -0.651183 0.000000 0.000000 0.000000 -9.546788 -1.521511 7.764559 -7.505439 -7.594287 -21.877945 28.783223 4.214177 1.498383 -9.318009 -12.746036 7.876586 -7.284791 0.347374 -0.186647 0.000000 0.000000 0.000000 -9.820825 -4.579815 6.345740 3.015134 -1.032937 -5.692464 6.716344 2.200743 -2.404652 1.770562 0.151361 1.605390 0.000000 0.000000 0.000000 5.957185 2.062185 -2.703372 -3.633614 -3.028413 -5.670297 -5.053395 -8.174105 4.137519 0.000000 0.000000 0.000000 6.977311 1.533441 -2.732804 3.536744 -11.435500 -14.569446 -2.099447 -0.092596 -2.275364 24.207736 -6.577984 -45.241947 -2.023229 -53.079664 -6.083878 0.000000 0.000000 0.000000 5.018849 2.156922 -1.635438 5.453641 6.809904 6.229808 -2.640362 5.998394 0.167275 4.184223 -1.663579 64.922280 20.232876 36.838820 -3.118417 0.000000 0.000000 0.000000 
-6.352442 116.444633 -2.159058 0.000000 0.000000 0.000000 -9.937735 -1.170059 7.169398 1.630699 10.163232 -3.836716 9.366539 2.996085 0.696581 1.127047 0.400261 -0.536053 -5.873952 0.093092 -0.521766 0.000000 0.000000 0.000000 -9.306317 -0.817444 7.198745 -7.244990 -7.999585 -21.428940 27.232705 3.401914 1.195511 -7.513818 -11.551581 8.703099 -6.724382 0.345725 -0.232116 0.000000 0.000000 0.000000 -10.219589 -3.721123 5.450922 3.558324 -0.493385 -5.435444 8.556475 2.160629 -1.794154 1.087402 0.036039 1.516638 0.000000 0.000000 0.000000 8.199026 2.170480 -2.214928 -7.355843 -2.053794 -6.248283 -7.977008 -6.351289 2.788852 0.000000 0.000000 0.000000 8.890763 1.875854 -2.145693 3.626562 -14.259905 -10.914336 -0.955839 -0.293304 -3.042358 31.432725 -12.511658 -39.276351 -9.449271 -62.374394 -8.984822 0.000000 0.000000 0.000000 7.230307 2.241403 -1.306347 4.896816 7.402741 6.047506 -2.255464 5.759234 -0.004017 6.768892 4.752989 61.367624 22.877042 39.663342 -8.084567 0.000000 0.000000 0.000000 
